<?xml version="1.0" encoding="utf-8"?>
<!-- Generator: Adobe Illustrator 16.0.0, SVG Export Plug-In . SVG Version: 6.00 Build 0)  -->
<!DOCTYPE svg PUBLIC "-//W3C//DTD SVG 1.1//EN" "http://www.w3.org/Graphics/SVG/1.1/DTD/svg11.dtd">
<svg version="1.1" id="Capa_1" xmlns="http://www.w3.org/2000/svg" xmlns:xlink="http://www.w3.org/1999/xlink" x="0px" y="0px"
	 width="239.802px" height="52.725px" viewBox="0 0 239.802 52.725" enable-background="new 0 0 239.802 52.725"
	 xml:space="preserve">
<g>
	<path fill="#00A4A4" d="M24.85,22.159c-1.51-0.883-10.141-4.431-12.761-5.67c-2.022-0.959-3.358-2.543-3.071-5.004
		c0.227-1.957,2.015-3.662,4.414-4.222c3.679-0.856,6.971,0.033,9.926,2.292c0.784,0.6,1.508,1.276,2.336,2.008
		c0.202,0.18,0.518,0.164,0.701-0.035c0.86-0.935,1.637-1.847,2.522-2.639c1.069-0.956,0.939-1.68,0.017-2.681
		c-5.32-5.777-16.467-6.945-22.798-2.293C-0.16,8.542,0.943,18.237,7.818,21.95c1.991,1.076,11.035,4.697,13.252,5.955
		c2.521,1.431,3.213,3.972,2.043,6.263c-0.93,1.821-2.55,2.785-4.467,3.207c-5.313,1.168-9.76-0.569-13.431-4.367
		c-1.146-1.185-1.701-0.957-2.696,0.125c-0.844,0.918-1.434,1.388-2.266,2.261c-0.352,0.371-0.447,1.268,0.446,2.005
		c5.901,6.055,13.059,7.692,21.053,5.646c4.977-1.275,8.382-4.408,9.022-9.786C31.37,28.244,29.073,24.63,24.85,22.159"/>
	<path fill="#00A4A4" d="M239.56,40.843c-0.144-0.662-0.479-2.021-0.699-2.873c-0.06-0.229-0.28-0.366-0.514-0.338
		c-1.841,0.218-2.302-0.273-2.33-2.361c-0.058-4.274,0.01-8.551-0.039-12.824c-0.065-5.901-3.295-9.86-9.849-11.347
		c-3.752-0.853-7.714-0.638-11.316,0.716c-2.253,0.846-4.249,2.078-6.028,3.904c-0.221,0.228-0.224,0.595-0.015,0.832
		c0.435,0.492,0.844,0.992,1.569,1.673c1.228,1.153,2.112,1.581,3.569,0.293c2.728-2.411,6.053-2.946,9.561-2.28
		c4.194,0.796,6.349,3.912,5.566,8.1c-0.64-0.156-1.279-0.295-1.909-0.468c-4.146-1.144-8.303-1.093-12.402,0.119
		c-3.336,0.987-6.015,2.878-7.121,6.472c-1.675,5.441,1.297,10.816,7.053,12.631c5.713,1.801,10.872,0.521,15.55-3.216
		c1.395,3.097,3.345,4.229,7.384,3.886C239.964,43.559,240.056,43.124,239.56,40.843 M220.869,38.702
		c-0.331-0.016-0.663-0.027-0.994-0.051c-3.392-0.236-5.781-2.337-5.875-5.164c-0.09-2.713,2.538-5.446,5.803-5.84
		c2.862-0.346,6.891,0.308,8.208,1.221c1.425,0.987,1.3,3.164,1.171,3.875C228.545,36.272,225.277,38.72,220.869,38.702"/>
	<path fill="#00A4A4" d="M149.818,35.036c-3.795-3.67-4.179-10.472-0.83-14.717c3.642-4.615,9.835-5.071,16.229-0.479
		c0.304,0.218,0.716,0.21,0.998-0.036c1.043-0.914,2.101-1.84,3.153-2.761c0.318-0.278,0.377-0.762,0.111-1.09
		c-3.869-4.778-11.692-6.687-18.47-4.519c-6.866,2.197-11.289,8.326-11.31,15.673c-0.021,7.467,4.432,13.715,11.319,15.879
		c6.817,2.144,14.614,0.233,18.466-4.537c0.266-0.329,0.204-0.817-0.118-1.094c-1.087-0.935-2.178-1.871-3.253-2.796
		c-0.294-0.252-0.719-0.246-1.022-0.005C159.866,38.702,153.768,38.857,149.818,35.036"/>
	<path fill="#00A4A4" d="M188.85,37.621c-0.16-0.341-0.553-0.492-0.911-0.374c-4.432,1.452-6.996-0.493-7.065-5.215
		c-0.029-2.035-0.021-10.831-0.039-14.982h8.839c0.403,0,0.729-0.326,0.729-0.729v-4.164c0-0.402-0.326-0.729-0.729-0.729h-8.863
		c-0.02-4.453-0.038-8.532-0.045-9.937c-0.001-0.274-0.247-0.479-0.518-0.438l-5.025,0.769c-0.769,0.118-1.336,0.771-1.334,1.547
		c0.008,4.521-0.053,25.392,0.092,30.205c0.237,7.835,8.43,12.76,15.309,9.248c0.556-0.283,1.528-0.822,1.164-1.649
		C189.933,39.988,189.399,38.792,188.85,37.621"/>
	<path fill="#00A4A4" d="M196.761,42.999h4.926c0.487,0,0.882-0.396,0.882-0.883V12.311c0-0.487-0.395-0.882-0.882-0.882h-4.926
		c-0.487,0-0.882,0.395-0.882,0.882v29.806C195.879,42.604,196.274,42.999,196.761,42.999"/>
	<path fill="#00A4A4" d="M199.251,0c-2.134-0.015-3.781,1.606-3.78,3.718c0.002,2.147,1.584,3.77,3.705,3.797
		c2.074,0.028,3.78-1.644,3.799-3.724C202.995,1.696,201.343,0.015,199.251,0"/>
	<path fill="#00A4A4" d="M98.896,34.373c-0.01-1.245,0.143-5.841-0.08-11.426c-0.39-9.743-9.681-13.283-16.662-12.026
		c-3.384,0.608-5.457,1.697-7.822,3.489c-0.656-1.218-2.881-3.536-5.89-4.034c-0.112-0.013-8.255-1.75-12.119,6.845
		c-2.787,6.524-4.021,9.148-7.071,16.034c-0.98-2.185-6.441-14.552-8.663-18.721c-1.895-3.554-5.387-4.783-8.766-3.479
		c-0.591,0.229-1.462,0.729-1.337,1.599c0.194,1.342,0.554,2.677,0.916,4.165c0.039,0.162,0.22,0.244,0.373,0.177
		c2.41-1.058,3.338,0.659,4.129,2.346c3.185,6.796,6.304,13.621,9.423,20.448c0.176,0.386,0.266,0.909,0.166,1.312
		c-1.207,4.818-3.507,6.537-8.245,5.551c-0.196-0.041-0.404,0.057-0.493,0.236c-0.536,1.085-0.829,1.874-1.277,2.809
		c-0.767,1.602,0.024,2.189,2.049,2.705c4.249,1.082,8.786-0.612,11.254-4.236c0.832-1.222,1.551-2.543,2.16-3.889
		c3.584-7.921,7.384-16.293,10.936-24.229c1.088-2.432,2.343-3.767,4.703-3.623c2.319,0.198,2.742,1.858,2.742,3.16
		c0,6.42,0.006,19.231,0.007,22.664c0,0.418,0.338,0.749,0.755,0.749h5.434c0.42,0,0.759-0.336,0.758-0.755
		c-0.008-2.898-0.003-12.601,0.054-17.271c0.057-4.675,2.966-7.964,7.155-8.31c4.898-0.402,7.894,2.026,8.38,7.21
		c0.105,1.119,0.138,2.244,0.15,3.372c-0.014,1.648,0.069,8.334,0.142,9.543c0.24,4.021,2.901,6.594,6.516,6.818
		c0.633,0.039,1.699-0.421,2.012-1.232c0.464-1.201,0.881-2.256,1.198-3.614c0.061-0.261-0.13-0.525-0.397-0.539
		C99.033,38.091,98.911,36.19,98.896,34.373"/>
	<path fill="#00A4A4" d="M136.368,26.767c-0.193-9.322-6.123-15.082-13.578-16.062c-7.158-0.943-14.25,2.377-17.333,8.643
		c-3.367,6.846-2.084,15.2,3.316,19.99c5.057,4.485,11.112,5.512,17.506,3.909c2.985-0.748,6.232-2.312,8.619-5.179
		c0.244-0.293,0.208-0.734-0.069-0.998c-0.917-0.873-1.802-1.678-2.719-2.434c-0.468-0.386-1.308-0.199-1.638,0.1
		c-3.118,2.826-6.399,3.756-10.486,3.485c-5.068-0.335-9.263-4.185-9.374-9.091h23.478C135.971,29.16,136.401,28.43,136.368,26.767
		 M119.89,15.967c5.339-0.336,8.903,3.06,9.359,8.349h-18.501C111.321,19.69,114.675,16.295,119.89,15.967"/>
</g>
</svg>
