<?xml version="1.0" encoding="utf-8"?>
<!-- Generator: Adobe Illustrator 16.0.0, SVG Export Plug-In . SVG Version: 6.00 Build 0)  -->
<!DOCTYPE svg PUBLIC "-//W3C//DTD SVG 1.1//EN" "http://www.w3.org/Graphics/SVG/1.1/DTD/svg11.dtd">
<svg version="1.1" id="Capa_1" xmlns="http://www.w3.org/2000/svg" xmlns:xlink="http://www.w3.org/1999/xlink" x="0px" y="0px"
	 width="243.85px" height="61.079px" viewBox="0 0 243.85 61.079" enable-background="new 0 0 243.85 61.079" xml:space="preserve">
<g>
	<path fill="#00A4A4" d="M76.504,27.307c-1.162-0.68-7.802-3.408-9.818-4.363c-1.556-0.736-2.583-1.955-2.363-3.85
		c0.175-1.506,1.55-2.818,3.396-3.248c2.831-0.658,5.364,0.025,7.637,1.764c0.603,0.461,1.16,0.982,1.797,1.545
		c0.156,0.139,0.399,0.127,0.54-0.027c0.661-0.719,1.259-1.42,1.94-2.029c0.822-0.736,0.722-1.293,0.013-2.062
		c-4.093-4.445-12.669-5.344-17.54-1.766c-4.844,3.561-3.995,11.02,1.294,13.877c1.532,0.826,8.49,3.613,10.196,4.582
		c1.939,1.1,2.472,3.055,1.572,4.816c-0.716,1.402-1.962,2.145-3.437,2.467c-4.088,0.9-7.509-0.436-10.333-3.359
		c-0.882-0.912-1.31-0.736-2.075,0.098c-0.649,0.705-1.103,1.066-1.743,1.738c-0.271,0.285-0.344,0.975,0.343,1.543
		c4.54,4.658,10.047,5.918,16.197,4.344c3.83-0.98,6.449-3.393,6.942-7.531C81.521,31.988,79.753,29.207,76.504,27.307"/>
	<path fill="#00A4A4" d="M241.697,41.682c-0.11-0.51-0.368-1.555-0.538-2.211c-0.046-0.176-0.215-0.283-0.396-0.26
		c-1.415,0.168-1.771-0.211-1.792-1.816c-0.045-3.289,0.007-6.58-0.03-9.867c-0.051-4.541-2.536-7.586-7.577-8.73
		c-2.887-0.654-5.936-0.49-8.705,0.551c-1.734,0.652-3.271,1.6-4.639,3.004c-0.17,0.176-0.173,0.457-0.012,0.641
		c0.334,0.379,0.648,0.764,1.207,1.287c0.945,0.887,1.625,1.217,2.746,0.225c2.099-1.855,4.656-2.266,7.355-1.754
		c3.227,0.611,4.885,3.01,4.282,6.232c-0.491-0.121-0.983-0.227-1.47-0.361c-3.188-0.881-6.387-0.84-9.541,0.094
		c-2.566,0.758-4.627,2.213-5.479,4.979c-1.288,4.186,0.998,8.32,5.428,9.717c4.395,1.387,8.364,0.402,11.963-2.475
		c1.072,2.383,2.574,3.254,5.682,2.99C242.008,43.77,242.079,43.436,241.697,41.682 M227.316,40.033
		c-0.255-0.012-0.51-0.021-0.765-0.037c-2.61-0.184-4.448-1.799-4.521-3.975c-0.069-2.086,1.953-4.189,4.466-4.494
		c2.201-0.264,5.301,0.238,6.314,0.941c1.096,0.758,0.999,2.434,0.9,2.98C233.222,38.166,230.708,40.047,227.316,40.033"/>
	<path fill="#00A4A4" d="M172.651,37.213c-2.92-2.824-3.215-8.057-0.639-11.322c2.803-3.553,7.567-3.902,12.487-0.369
		c0.233,0.17,0.55,0.162,0.767-0.027c0.803-0.703,1.617-1.416,2.428-2.125c0.244-0.213,0.289-0.586,0.084-0.838
		c-2.977-3.676-8.996-5.143-14.211-3.475c-5.281,1.689-8.685,6.404-8.701,12.057c-0.016,5.746,3.41,10.553,8.709,12.217
		c5.244,1.65,11.244,0.182,14.207-3.49c0.205-0.254,0.156-0.629-0.09-0.842c-0.838-0.719-1.676-1.439-2.504-2.15
		c-0.226-0.193-0.553-0.189-0.787-0.004C180.381,40.035,175.69,40.154,172.651,37.213"/>
	<path fill="#00A4A4" d="M202.682,39.203c-0.123-0.264-0.427-0.379-0.701-0.289c-3.41,1.117-5.383-0.379-5.436-4.012
		c-0.023-1.566-0.017-8.332-0.029-11.527h6.799c0.311,0,0.562-0.25,0.562-0.561v-3.203c0-0.311-0.251-0.561-0.562-0.561h-6.818
		c-0.016-3.426-0.029-6.564-0.035-7.645c-0.001-0.213-0.189-0.369-0.398-0.338l-3.865,0.592c-0.592,0.09-1.028,0.592-1.027,1.189
		c0.006,3.479-0.041,19.535,0.071,23.238c0.182,6.029,6.485,9.818,11.778,7.117c0.428-0.219,1.176-0.633,0.896-1.27
		C203.514,41.023,203.104,40.104,202.682,39.203"/>
	<path fill="#00A4A4" d="M208.768,43.34h3.79c0.375,0,0.679-0.305,0.679-0.68V19.73c0-0.375-0.304-0.68-0.679-0.68h-3.79
		c-0.375,0-0.679,0.305-0.679,0.68v22.93C208.089,43.035,208.393,43.34,208.768,43.34"/>
	<path fill="#00A4A4" d="M210.684,10.258c-1.642-0.012-2.908,1.236-2.908,2.861c0.002,1.65,1.219,2.898,2.851,2.92
		c1.596,0.023,2.907-1.264,2.923-2.865C213.565,11.562,212.293,10.27,210.684,10.258"/>
	<path fill="#00A4A4" d="M133.473,36.703c-0.008-0.959,0.11-4.494-0.062-8.791c-0.299-7.496-7.448-10.219-12.819-9.252
		c-2.604,0.469-4.198,1.305-6.018,2.684c-0.505-0.936-2.216-2.721-4.532-3.104c-0.085-0.01-6.351-1.346-9.324,5.266
		c-2.144,5.021-3.094,7.039-5.44,12.338c-0.754-1.682-4.955-11.195-6.665-14.404c-1.458-2.734-4.145-3.68-6.744-2.678
		c-0.455,0.178-1.125,0.562-1.029,1.23c0.149,1.033,0.426,2.061,0.705,3.205c0.03,0.125,0.169,0.188,0.286,0.137
		c1.855-0.814,2.569,0.506,3.177,1.803c2.451,5.229,4.851,10.482,7.25,15.734c0.136,0.297,0.205,0.699,0.128,1.008
		c-0.929,3.707-2.698,5.029-6.343,4.271c-0.151-0.031-0.312,0.043-0.38,0.182c-0.412,0.834-0.637,1.441-0.982,2.16
		c-0.59,1.232,0.018,1.686,1.576,2.082c3.269,0.832,6.76-0.471,8.659-3.26c0.64-0.939,1.193-1.955,1.661-2.992
		c2.758-6.094,5.682-12.535,8.414-18.641c0.838-1.871,1.803-2.896,3.619-2.787c1.784,0.152,2.109,1.43,2.109,2.432
		c0,4.938,0.005,14.797,0.006,17.436c0,0.322,0.26,0.578,0.581,0.578h4.181c0.322,0,0.584-0.26,0.583-0.582
		c-0.006-2.229-0.003-9.693,0.041-13.287c0.044-3.596,2.283-6.127,5.505-6.393c3.768-0.311,6.073,1.559,6.447,5.547
		c0.081,0.861,0.107,1.727,0.116,2.594c-0.011,1.27,0.053,6.412,0.109,7.344c0.185,3.092,2.232,5.072,5.014,5.244
		c0.486,0.031,1.306-0.322,1.548-0.947c0.356-0.924,0.677-1.736,0.921-2.781c0.047-0.199-0.1-0.404-0.305-0.414
		C133.578,39.564,133.485,38.102,133.473,36.703"/>
	<path fill="#00A4A4" d="M162.302,30.852c-0.147-7.174-4.71-11.604-10.447-12.359c-5.507-0.725-10.963,1.83-13.335,6.65
		c-2.591,5.266-1.603,11.695,2.551,15.379c3.891,3.451,8.549,4.242,13.47,3.008c2.296-0.576,4.793-1.777,6.63-3.982
		c0.188-0.227,0.161-0.566-0.052-0.77c-0.707-0.672-1.387-1.291-2.094-1.871c-0.359-0.297-1.006-0.154-1.259,0.076
		c-2.399,2.174-4.924,2.889-8.068,2.682c-3.899-0.258-7.127-3.221-7.212-6.994h18.063C161.999,32.691,162.329,32.131,162.302,30.852
		 M149.625,22.541c4.108-0.258,6.851,2.355,7.202,6.426h-14.235C143.033,25.406,145.613,22.795,149.625,22.541"/>
	<path fill="#FF5B35" d="M35.498,6.396h-19.09c-1.143,0-2.069-0.928-2.069-2.07s0.926-2.068,2.069-2.068h19.09
		c1.142,0,2.068,0.926,2.068,2.068S36.639,6.396,35.498,6.396 M30.593,10.879L30.593,10.879c0-1.141-0.926-2.068-2.069-2.068H5.509
		c-1.142,0-2.068,0.928-2.068,2.068c0,1.145,0.926,2.07,2.068,2.07h23.015C29.667,12.949,30.593,12.023,30.593,10.879
		 M26.893,17.434L26.893,17.434c0-1.143-0.926-2.068-2.069-2.068H4.037c-1.143,0-2.069,0.926-2.069,2.068s0.926,2.068,2.069,2.068
		h20.787C25.966,19.502,26.893,18.576,26.893,17.434 M29.385,23.986L29.385,23.986c0-1.143-0.926-2.068-2.068-2.068H6.074
		c-1.142,0-2.068,0.926-2.068,2.068s0.926,2.07,2.068,2.07h21.243C28.459,26.057,29.385,25.129,29.385,23.986 M34.442,30.539
		L34.442,30.539c0-1.143-0.926-2.068-2.069-2.068h-6.499c-1.143,0-2.069,0.926-2.069,2.068c0,1.145,0.926,2.07,2.069,2.07h6.499
		C33.517,32.609,34.442,31.684,34.442,30.539"/>
	<path fill="#00A4A4" d="M9.524,54.684h19.09c1.143,0,2.069,0.928,2.069,2.068c0,1.145-0.926,2.07-2.069,2.07H9.524
		c-1.142,0-2.068-0.926-2.068-2.07C7.456,55.611,8.382,54.684,9.524,54.684 M14.428,50.199L14.428,50.199
		c0,1.143,0.926,2.07,2.069,2.07h23.015c1.142,0,2.068-0.928,2.068-2.07s-0.926-2.068-2.068-2.068H16.497
		C15.354,48.131,14.428,49.057,14.428,50.199 M18.129,43.646L18.129,43.646c0,1.143,0.926,2.068,2.069,2.068h20.787
		c1.143,0,2.069-0.926,2.069-2.068s-0.926-2.068-2.069-2.068H20.198C19.055,41.578,18.129,42.504,18.129,43.646 M15.636,37.094
		L15.636,37.094c0,1.143,0.926,2.068,2.068,2.068h21.243c1.142,0,2.068-0.926,2.068-2.068s-0.926-2.068-2.068-2.068H17.704
		C16.562,35.025,15.636,35.951,15.636,37.094 M10.579,30.539L10.579,30.539c0,1.145,0.926,2.07,2.069,2.07h6.499
		c1.143,0,2.069-0.926,2.069-2.07c0-1.143-0.926-2.068-2.069-2.068h-6.499C11.505,28.471,10.579,29.396,10.579,30.539"/>
</g>
</svg>
